<svg width="20" height="20" viewBox="0 0 20 20" fill="none" xmlns="http://www.w3.org/2000/svg">
<path d="M17.31 7.63L16.17 4.20917C16.0046 3.71124 15.6866 3.27808 15.261 2.97126C14.8353 2.66443 14.3239 2.49953 13.7992 2.5H6.20085C5.67618 2.49953 5.1647 2.66443 4.73909 2.97126C4.31348 3.27808 3.99539 3.71124 3.83002 4.20917L2.69002 7.63C2.3872 7.75707 2.12858 7.97063 1.94656 8.24397C1.76453 8.51731 1.66718 8.83827 1.66669 9.16667V13.3333C1.66669 13.9608 2.01919 14.5017 2.53252 14.7858C2.52169 14.8408 2.50002 14.8908 2.50002 14.9483V16.6667C2.50002 16.8877 2.58782 17.0996 2.7441 17.2559C2.90038 17.4122 3.11234 17.5 3.33335 17.5H4.16669C4.3877 17.5 4.59966 17.4122 4.75594 17.2559C4.91222 17.0996 5.00002 16.8877 5.00002 16.6667V15H15V16.6667C15 16.8877 15.0878 17.0996 15.2441 17.2559C15.4004 17.4122 15.6123 17.5 15.8334 17.5H16.6667C16.8877 17.5 17.0997 17.4122 17.2559 17.2559C17.4122 17.0996 17.5 16.8877 17.5 16.6667V14.9483C17.5 14.8908 17.4784 14.84 17.4675 14.7858C17.7287 14.6434 17.9468 14.4335 18.0991 14.178C18.2514 13.9225 18.3323 13.6308 18.3334 13.3333V9.16667C18.3334 8.47583 17.91 7.8825 17.31 7.63ZM3.33335 13.3333V9.16667H16.6667L16.6684 13.3333H3.33335ZM6.20085 4.16667H13.7984C14.1575 4.16667 14.4759 4.395 14.5892 4.73667L15.5109 7.5H4.48919L5.41002 4.73667C5.46531 4.57066 5.57145 4.42627 5.71339 4.32397C5.85534 4.22166 6.02588 4.16663 6.20085 4.16667Z" fill="#72767C"/>
<path d="M5.41669 12.5C6.10704 12.5 6.66669 11.9404 6.66669 11.25C6.66669 10.5596 6.10704 10 5.41669 10C4.72633 10 4.16669 10.5596 4.16669 11.25C4.16669 11.9404 4.72633 12.5 5.41669 12.5Z" fill="#72767C"/>
<path d="M14.5834 12.5C15.2737 12.5 15.8334 11.9404 15.8334 11.25C15.8334 10.5596 15.2737 10 14.5834 10C13.893 10 13.3334 10.5596 13.3334 11.25C13.3334 11.9404 13.893 12.5 14.5834 12.5Z" fill="#72767C"/>
</svg>
