<svg width="20" height="20" viewBox="0 0 20 20" fill="none" xmlns="http://www.w3.org/2000/svg">
<path fill-rule="evenodd" clip-rule="evenodd" d="M8.33331 16.6667C8.33331 18.0474 7.21402 19.1667 5.83331 19.1667C4.4526 19.1667 3.33331 18.0474 3.33331 16.6667C3.33331 15.286 4.4526 14.1667 5.83331 14.1667C7.21402 14.1667 8.33331 15.286 8.33331 16.6667ZM6.66665 16.6667C6.66665 17.1269 6.29355 17.5 5.83331 17.5C5.37308 17.5 4.99998 17.1269 4.99998 16.6667C4.99998 16.2064 5.37308 15.8333 5.83331 15.8333C6.29355 15.8333 6.66665 16.2064 6.66665 16.6667Z" fill="#72767C"/>
<path fill-rule="evenodd" clip-rule="evenodd" d="M16.6666 16.6667C16.6666 18.0474 15.5474 19.1667 14.1666 19.1667C12.7859 19.1667 11.6666 18.0474 11.6666 16.6667C11.6666 15.286 12.7859 14.1667 14.1666 14.1667C15.5474 14.1667 16.6666 15.286 16.6666 16.6667ZM15 16.6667C15 17.1269 14.6269 17.5 14.1666 17.5C13.7064 17.5 13.3333 17.1269 13.3333 16.6667C13.3333 16.2064 13.7064 15.8333 14.1666 15.8333C14.6269 15.8333 15 16.2064 15 16.6667Z" fill="#72767C"/>
<path fill-rule="evenodd" clip-rule="evenodd" d="M1.75466 2.12732C1.96049 1.71567 2.46105 1.54882 2.8727 1.75464L3.70895 2.17277C4.48334 2.55997 5.00227 3.32027 5.08065 4.1825L5.12052 4.62106C5.14003 4.83567 5.31998 5 5.53548 5H16.5296C17.9842 5 18.991 6.45286 18.4803 7.81484L17.0192 11.7111C16.6533 12.6869 15.7205 13.3333 14.6784 13.3333H6.52204C5.22904 13.3333 4.14937 12.3474 4.03231 11.0597L3.42083 4.33339C3.3947 4.04598 3.22173 3.79255 2.9636 3.66348L2.12734 3.24536C1.71569 3.03953 1.54884 2.53897 1.75466 2.12732ZM5.76275 6.66667C5.51774 6.66667 5.32561 6.87705 5.34779 7.12106L5.69213 10.9088C5.73115 11.338 6.09104 11.6667 6.52204 11.6667H14.6784C15.0257 11.6667 15.3367 11.4512 15.4586 11.1259L16.9197 7.22963C17.0219 6.95724 16.8205 6.66667 16.5296 6.66667H5.76275Z" fill="#72767C"/>
</svg>
