<svg width="20" height="20" viewBox="0 0 20 20" fill="none" xmlns="http://www.w3.org/2000/svg">
<path fill-rule="evenodd" clip-rule="evenodd" d="M15.8334 5H4.16669C3.70645 5 3.33335 5.3731 3.33335 5.83334V15.8333C3.33335 16.2936 3.70645 16.6667 4.16669 16.6667H15.8334C16.2936 16.6667 16.6667 16.2936 16.6667 15.8333V5.83334C16.6667 5.3731 16.2936 5 15.8334 5ZM4.16669 3.33334C2.78598 3.33334 1.66669 4.45262 1.66669 5.83334V15.8333C1.66669 17.214 2.78597 18.3333 4.16669 18.3333H15.8334C17.2141 18.3333 18.3334 17.214 18.3334 15.8333V5.83334C18.3334 4.45262 17.2141 3.33334 15.8334 3.33334H4.16669Z" fill="#72767C"/>
<path fill-rule="evenodd" clip-rule="evenodd" d="M8.33333 10C7.8731 10 7.5 10.3731 7.5 10.8333C7.5 11.2936 7.8731 11.6667 8.33333 11.6667H14.1667C14.6269 11.6667 15 11.2936 15 10.8333C15 10.3731 14.6269 10 14.1667 10H8.33333ZM5.83333 13.3333C5.3731 13.3333 5 13.7064 5 14.1667C5 14.6269 5.3731 15 5.83333 15H10.8333C11.2936 15 11.6667 14.6269 11.6667 14.1667C11.6667 13.7064 11.2936 13.3333 10.8333 13.3333H5.83333Z" fill="#72767C"/>
<path fill-rule="evenodd" clip-rule="evenodd" d="M5.83333 1.66666C5.3731 1.66666 5 2.03976 5 2.5V5.83333C5 6.29357 5.3731 6.66666 5.83333 6.66666C6.29357 6.66666 6.66667 6.29357 6.66667 5.83333V2.5C6.66667 2.03976 6.29357 1.66666 5.83333 1.66666ZM14.1667 1.66666C13.7064 1.66666 13.3333 2.03976 13.3333 2.5V5.83333C13.3333 6.29357 13.7064 6.66666 14.1667 6.66666C14.6269 6.66666 15 6.29357 15 5.83333V2.5C15 2.03976 14.6269 1.66666 14.1667 1.66666Z" fill="#72767C"/>
</svg>
