<svg width="112" height="222" viewBox="0 0 112 222" fill="none" xmlns="http://www.w3.org/2000/svg">
<circle cx="56" cy="19.5" r="19" fill="#FF7E86" fill-opacity="0.1"/>
<path d="M56.4164 27.4215L59.5197 24.3182L58.2237 23.0054L56.6892 24.5399L56.6891 14.6503L58.2236 16.1848L59.5366 14.8719L56.4162 11.7686C56.0581 11.4105 55.4614 11.4105 55.1033 11.7686L52 14.8719L53.313 16.1848L54.8475 14.6503V24.5399L53.313 23.0054L52 24.3183L55.1033 27.4216C55.4784 27.7795 56.0581 27.7795 56.4162 27.4214L56.4164 27.4215Z" fill="#FF7E86"/>
<path d="M22.132 72.5V55.7H28.3C29.644 55.7 30.748 55.932 31.612 56.396C32.492 56.844 33.148 57.46 33.58 58.244C34.012 59.012 34.228 59.868 34.228 60.812C34.228 61.836 33.956 62.772 33.412 63.62C32.884 64.468 32.052 65.084 30.916 65.468L34.396 72.5H30.868L27.748 65.876H25.204V72.5H22.132ZM25.204 63.62H28.108C29.132 63.62 29.884 63.372 30.364 62.876C30.844 62.38 31.084 61.724 31.084 60.908C31.084 60.108 30.844 59.468 30.364 58.988C29.9 58.508 29.14 58.268 28.084 58.268H25.204V63.62ZM40.6718 72.788C39.6478 72.788 38.8078 72.628 38.1518 72.308C37.4958 71.972 37.0078 71.532 36.6878 70.988C36.3678 70.444 36.2078 69.844 36.2078 69.188C36.2078 68.084 36.6398 67.188 37.5038 66.5C38.3678 65.812 39.6638 65.468 41.3918 65.468H44.4158V65.18C44.4158 64.364 44.1838 63.764 43.7198 63.38C43.2558 62.996 42.6798 62.804 41.9918 62.804C41.3678 62.804 40.8238 62.956 40.3598 63.26C39.8958 63.548 39.6078 63.98 39.4958 64.556H36.4958C36.5758 63.692 36.8638 62.94 37.3598 62.3C37.8718 61.66 38.5278 61.172 39.3278 60.836C40.1278 60.484 41.0238 60.308 42.0158 60.308C43.7118 60.308 45.0478 60.732 46.0238 61.58C46.9998 62.428 47.4878 63.628 47.4878 65.18V72.5H44.8718L44.5838 70.58C44.2318 71.22 43.7358 71.748 43.0958 72.164C42.4718 72.58 41.6638 72.788 40.6718 72.788ZM41.3678 70.388C42.2478 70.388 42.9278 70.1 43.4078 69.524C43.9038 68.948 44.2158 68.236 44.3438 67.388H41.7278C40.9118 67.388 40.3278 67.54 39.9758 67.844C39.6238 68.132 39.4478 68.492 39.4478 68.924C39.4478 69.388 39.6238 69.748 39.9758 70.004C40.3278 70.26 40.7918 70.388 41.3678 70.388ZM50.4194 72.5V60.596H53.1314L53.3714 62.612C53.7394 61.908 54.2674 61.348 54.9554 60.932C55.6594 60.516 56.4834 60.308 57.4274 60.308C58.8994 60.308 60.0434 60.772 60.8594 61.7C61.6754 62.628 62.0834 63.988 62.0834 65.78V72.5H59.0114V66.068C59.0114 65.044 58.8034 64.26 58.3874 63.716C57.9714 63.172 57.3234 62.9 56.4434 62.9C55.5794 62.9 54.8674 63.204 54.3074 63.812C53.7634 64.42 53.4914 65.268 53.4914 66.356V72.5H50.4194ZM70.0609 68.948C69.4849 68.948 68.9489 68.884 68.4529 68.756L67.5649 69.644C67.8369 69.788 68.2049 69.908 68.6689 70.004C69.1329 70.1 69.8849 70.196 70.9249 70.292C72.5089 70.436 73.6609 70.812 74.3809 71.42C75.1009 72.028 75.4609 72.868 75.4609 73.94C75.4609 74.644 75.2689 75.308 74.8849 75.932C74.5009 76.572 73.9089 77.084 73.1089 77.468C72.3089 77.868 71.2849 78.068 70.0369 78.068C68.3409 78.068 66.9729 77.748 65.9329 77.108C64.8929 76.484 64.3729 75.54 64.3729 74.276C64.3729 73.204 64.8929 72.276 65.9329 71.492C65.6129 71.348 65.3329 71.196 65.0929 71.036C64.8689 70.876 64.6689 70.708 64.4929 70.532V69.98L66.5809 67.772C65.6529 66.956 65.1889 65.908 65.1889 64.628C65.1889 63.828 65.3809 63.1 65.7649 62.444C66.1649 61.788 66.7249 61.268 67.4449 60.884C68.1649 60.5 69.0369 60.308 70.0609 60.308C70.7329 60.308 71.3569 60.404 71.9329 60.596H76.4449V62.468L74.4049 62.612C74.7249 63.22 74.8849 63.892 74.8849 64.628C74.8849 65.428 74.6929 66.156 74.3089 66.812C73.9249 67.468 73.3649 67.988 72.6289 68.372C71.9089 68.756 71.0529 68.948 70.0609 68.948ZM70.0609 66.596C70.6849 66.596 71.1969 66.428 71.5969 66.092C72.0129 65.756 72.2209 65.276 72.2209 64.652C72.2209 64.028 72.0129 63.548 71.5969 63.212C71.1969 62.876 70.6849 62.708 70.0609 62.708C69.4049 62.708 68.8769 62.876 68.4769 63.212C68.0769 63.548 67.8769 64.028 67.8769 64.652C67.8769 65.276 68.0769 65.756 68.4769 66.092C68.8769 66.428 69.4049 66.596 70.0609 66.596ZM67.1809 73.964C67.1809 74.556 67.4529 74.996 67.9969 75.284C68.5569 75.588 69.2369 75.74 70.0369 75.74C70.8049 75.74 71.4289 75.58 71.9089 75.26C72.3889 74.956 72.6289 74.54 72.6289 74.012C72.6289 73.58 72.4689 73.22 72.1489 72.932C71.8449 72.644 71.2289 72.468 70.3009 72.404C69.6449 72.356 69.0369 72.284 68.4769 72.188C68.0129 72.444 67.6769 72.724 67.4689 73.028C67.2769 73.332 67.1809 73.644 67.1809 73.964ZM84.0003 72.788C82.8003 72.788 81.7363 72.532 80.8083 72.02C79.8803 71.508 79.1523 70.788 78.6243 69.86C78.0963 68.932 77.8323 67.86 77.8323 66.644C77.8323 65.412 78.0883 64.316 78.6003 63.356C79.1283 62.396 79.8483 61.652 80.7603 61.124C81.6883 60.58 82.7763 60.308 84.0243 60.308C85.1923 60.308 86.2243 60.564 87.1203 61.076C88.0163 61.588 88.7123 62.292 89.2083 63.188C89.7203 64.068 89.9763 65.052 89.9763 66.14C89.9763 66.316 89.9683 66.5 89.9523 66.692C89.9523 66.884 89.9443 67.084 89.9283 67.292H80.8803C80.9443 68.22 81.2643 68.948 81.8403 69.476C82.4323 70.004 83.1443 70.268 83.9763 70.268C84.6003 70.268 85.1203 70.132 85.5363 69.86C85.9683 69.572 86.2883 69.204 86.4963 68.756H89.6163C89.3923 69.508 89.0163 70.196 88.4883 70.82C87.9763 71.428 87.3363 71.908 86.5683 72.26C85.8163 72.612 84.9603 72.788 84.0003 72.788ZM84.0243 62.804C83.2723 62.804 82.6083 63.02 82.0323 63.452C81.4563 63.868 81.0883 64.508 80.9283 65.372H86.8563C86.8083 64.588 86.5203 63.964 85.9923 63.5C85.4643 63.036 84.8083 62.804 84.0243 62.804Z" fill="#242731"/>
<path d="M95.6591 196.602C98.0928 198.51 101.64 198.098 103.296 195.485C108.06 187.971 110.98 179.406 111.777 170.491C112.742 159.71 110.562 148.881 105.501 139.314C100.439 129.747 92.7144 121.851 83.2599 116.583C73.8055 111.314 63.0268 108.898 52.228 109.627C41.4292 110.356 31.073 114.199 22.4125 120.691C13.752 127.182 7.15823 136.044 3.42902 146.205C-0.300193 156.366 -1.00505 167.389 1.39972 177.942C3.3884 186.669 7.43321 194.765 13.1639 201.57C15.156 203.936 18.7261 203.868 20.8812 201.65C23.0362 199.432 22.9529 195.906 21.0205 193.491C16.8115 188.231 13.8272 182.069 12.3198 175.454C10.396 167.012 10.9598 158.193 13.9432 150.064C16.9266 141.936 22.2016 134.846 29.13 129.653C36.0584 124.459 44.3433 121.385 52.9824 120.802C61.6214 120.219 70.2444 122.151 77.8079 126.366C85.3715 130.581 91.5516 136.898 95.6004 144.551C99.6493 152.205 101.393 160.868 100.622 169.492C100.017 176.25 97.8882 182.757 94.4243 188.535C92.8341 191.188 93.2254 194.693 95.6591 196.602Z" fill="#F4F5F9"/>
<path d="M20.8528 201.622C18.6959 203.839 15.1258 203.904 13.1356 201.537C6.77094 193.966 2.50222 184.816 0.812389 175.004C-1.19539 163.345 0.5406 151.35 5.77139 140.739C11.0022 130.128 19.459 121.446 29.9291 115.939C38.7411 111.303 48.5981 109.117 58.4788 109.555C61.5685 109.692 63.6912 112.563 63.2465 115.624C62.8018 118.684 59.9558 120.768 56.8635 120.708C49.3357 120.563 41.86 122.318 35.1432 125.851C26.7672 130.257 20.0017 137.203 15.8171 145.692C11.6325 154.18 10.2437 163.776 11.8499 173.103C13.1379 180.583 16.2989 187.581 20.9985 193.463C22.9289 195.879 23.0096 199.406 20.8528 201.622Z" fill="#FF7E86"/>
<path d="M24.456 169.5V156.204L21.696 156.852V154.5L25.752 152.7H27.648V169.5H24.456ZM36.9294 169.788C35.6974 169.788 34.6334 169.572 33.7374 169.14C32.8574 168.708 32.1614 168.116 31.6494 167.364C31.1534 166.596 30.8654 165.732 30.7854 164.772H33.7854C33.9294 165.46 34.2814 166.036 34.8414 166.5C35.4014 166.948 36.0974 167.172 36.9294 167.172C37.8254 167.172 38.5534 166.844 39.1134 166.188C39.6894 165.532 39.9774 164.716 39.9774 163.74C39.9774 162.732 39.6894 161.932 39.1134 161.34C38.5534 160.748 37.8414 160.452 36.9774 160.452C36.2574 160.452 35.6334 160.628 35.1054 160.98C34.5774 161.332 34.2014 161.772 33.9774 162.3H31.0254L32.4654 152.7H41.7774V155.388H34.7694L34.0014 159.276C34.3534 158.892 34.8334 158.58 35.4414 158.34C36.0494 158.084 36.7294 157.956 37.4814 157.956C38.6814 157.956 39.6814 158.228 40.4814 158.772C41.2814 159.3 41.8894 160.004 42.3054 160.884C42.7214 161.748 42.9294 162.692 42.9294 163.716C42.9294 164.884 42.6734 165.924 42.1614 166.836C41.6654 167.748 40.9614 168.468 40.0494 168.996C39.1534 169.524 38.1134 169.788 36.9294 169.788ZM46.5373 169.5L52.8733 155.316H44.5933V152.7H56.0413V154.884L49.7293 169.5H46.5373ZM58.3256 169.5V152.22H61.3976V162.42L65.6216 157.596H69.2696L64.3976 163.02L70.0616 169.5H66.2216L61.3976 163.524V169.5H58.3256ZM75.4943 160.956C74.7263 160.956 74.0303 160.788 73.4062 160.452C72.7823 160.1 72.2863 159.604 71.9183 158.964C71.5503 158.324 71.3663 157.564 71.3663 156.684C71.3663 155.804 71.5503 155.044 71.9183 154.404C72.2863 153.764 72.7823 153.276 73.4062 152.94C74.0303 152.588 74.7343 152.412 75.5183 152.412C76.2863 152.412 76.9743 152.588 77.5823 152.94C78.2063 153.276 78.7023 153.764 79.0703 154.404C79.4383 155.044 79.6223 155.804 79.6223 156.684C79.6223 157.564 79.4383 158.324 79.0703 158.964C78.7023 159.604 78.2063 160.1 77.5823 160.452C76.9583 160.788 76.2623 160.956 75.4943 160.956ZM74.5823 169.5L84.0623 152.7H87.0623L77.5823 169.5H74.5823ZM75.4943 158.82C75.9583 158.82 76.3583 158.644 76.6943 158.292C77.0303 157.924 77.1983 157.388 77.1983 156.684C77.1983 155.98 77.0303 155.444 76.6943 155.076C76.3743 154.708 75.9743 154.524 75.4943 154.524C75.0143 154.524 74.6063 154.708 74.2703 155.076C73.9503 155.444 73.7903 155.98 73.7903 156.684C73.7903 157.388 73.9503 157.924 74.2703 158.292C74.6063 158.644 75.0143 158.82 75.4943 158.82ZM86.2463 169.788C85.4783 169.788 84.7823 169.62 84.1583 169.284C83.5343 168.932 83.0383 168.436 82.6703 167.796C82.3023 167.156 82.1183 166.396 82.1183 165.516C82.1183 164.636 82.3023 163.884 82.6703 163.26C83.0383 162.62 83.5343 162.132 84.1583 161.796C84.7823 161.444 85.4863 161.268 86.2703 161.268C87.0383 161.268 87.7263 161.444 88.3343 161.796C88.9583 162.132 89.4543 162.62 89.8223 163.26C90.1903 163.884 90.3743 164.636 90.3743 165.516C90.3743 166.396 90.1903 167.156 89.8223 167.796C89.4543 168.436 88.9583 168.932 88.3343 169.284C87.7263 169.62 87.0303 169.788 86.2463 169.788ZM86.2463 167.652C86.7263 167.652 87.1263 167.476 87.4463 167.124C87.7823 166.756 87.9503 166.22 87.9503 165.516C87.9503 164.812 87.7823 164.276 87.4463 163.908C87.1263 163.54 86.7263 163.356 86.2463 163.356C85.7663 163.356 85.3583 163.54 85.0223 163.908C84.7023 164.276 84.5423 164.812 84.5423 165.516C84.5423 166.22 84.7023 166.756 85.0223 167.124C85.3583 167.476 85.7663 167.652 86.2463 167.652Z" fill="#242731"/>
</svg>
