<svg width="20" height="20" viewBox="0 0 20 20" fill="none" xmlns="http://www.w3.org/2000/svg">
<path fill-rule="evenodd" clip-rule="evenodd" d="M14.5833 12.5C14.2065 12.5 13.6741 12.5521 13.1198 12.628C12.8609 12.6635 12.6634 12.8609 12.628 13.1198C12.5521 13.6741 12.5 14.2065 12.5 14.5833C12.5 14.9601 12.5521 15.4926 12.628 16.0468C12.6634 16.3058 12.8609 16.5032 13.1198 16.5387C13.6741 16.6146 14.2065 16.6667 14.5833 16.6667C14.9601 16.6667 15.4925 16.6146 16.0468 16.5387C16.3057 16.5032 16.5032 16.3058 16.5387 16.0468C16.6146 15.4926 16.6666 14.9601 16.6666 14.5833C16.6666 14.2065 16.6146 13.6741 16.5387 13.1198C16.5032 12.8609 16.3057 12.6635 16.0468 12.628C15.4925 12.5521 14.9601 12.5 14.5833 12.5ZM12.8937 10.9767C11.8938 11.1137 11.1137 11.8938 10.9767 12.8937C10.8982 13.4672 10.8333 14.0901 10.8333 14.5833C10.8333 15.0765 10.8982 15.6995 10.9767 16.273C11.1137 17.2729 11.8938 18.053 12.8937 18.1899C13.4672 18.2685 14.0901 18.3333 14.5833 18.3333C15.0765 18.3333 15.6994 18.2685 16.273 18.1899C17.2729 18.053 18.053 17.2729 18.1899 16.273C18.2684 15.6995 18.3333 15.0765 18.3333 14.5833C18.3333 14.0901 18.2684 13.4672 18.1899 12.8937C18.053 11.8938 17.2729 11.1137 16.273 10.9767C15.6994 10.8982 15.0765 10.8333 14.5833 10.8333C14.0901 10.8333 13.4672 10.8982 12.8937 10.9767Z" fill="#5F6165"/>
<path fill-rule="evenodd" clip-rule="evenodd" d="M5.41669 12.5C5.03987 12.5 4.50746 12.5521 3.9532 12.628C3.69426 12.6635 3.49681 12.8609 3.46135 13.1198C3.38544 13.6741 3.33335 14.2065 3.33335 14.5833C3.33335 14.9601 3.38544 15.4926 3.46135 16.0468C3.49681 16.3058 3.69426 16.5032 3.9532 16.5387C4.50746 16.6146 5.03987 16.6667 5.41669 16.6667C5.7935 16.6667 6.32592 16.6146 6.88018 16.5387C7.13912 16.5032 7.33656 16.3058 7.37203 16.0468C7.44793 15.4926 7.50002 14.9601 7.50002 14.5833C7.50002 14.2065 7.44793 13.6741 7.37203 13.1198C7.33656 12.8609 7.13912 12.6635 6.88018 12.628C6.32592 12.5521 5.7935 12.5 5.41669 12.5ZM3.72705 10.9767C2.72713 11.1137 1.94704 11.8938 1.8101 12.8937C1.73155 13.4672 1.66669 14.0901 1.66669 14.5833C1.66669 15.0765 1.73155 15.6995 1.8101 16.273C1.94704 17.2729 2.72713 18.053 3.72705 18.1899C4.30056 18.2685 4.92349 18.3333 5.41669 18.3333C5.90989 18.3333 6.53282 18.2685 7.10632 18.1899C8.10624 18.053 8.88633 17.2729 9.02328 16.273C9.10182 15.6995 9.16669 15.0765 9.16669 14.5833C9.16669 14.0901 9.10182 13.4672 9.02328 12.8937C8.88633 11.8938 8.10624 11.1137 7.10632 10.9767C6.53282 10.8982 5.90989 10.8333 5.41669 10.8333C4.92349 10.8333 4.30056 10.8982 3.72705 10.9767Z" fill="#5F6165"/>
<path fill-rule="evenodd" clip-rule="evenodd" d="M14.5833 3.33334C14.2065 3.33334 13.6741 3.38543 13.1198 3.46133C12.8609 3.4968 12.6634 3.69424 12.628 3.95318C12.5521 4.50744 12.5 5.03985 12.5 5.41667C12.5 5.79349 12.5521 6.3259 12.628 6.88016C12.6634 7.1391 12.8609 7.33655 13.1198 7.37201C13.6741 7.44792 14.2065 7.50001 14.5833 7.50001C14.9601 7.50001 15.4925 7.44792 16.0468 7.37201C16.3057 7.33655 16.5032 7.1391 16.5387 6.88016C16.6146 6.3259 16.6666 5.79349 16.6666 5.41667C16.6666 5.03985 16.6146 4.50744 16.5387 3.95318C16.5032 3.69424 16.3057 3.4968 16.0468 3.46133C15.4925 3.38543 14.9601 3.33334 14.5833 3.33334ZM12.8937 1.81008C11.8938 1.94702 11.1137 2.72712 10.9767 3.72704C10.8982 4.30054 10.8333 4.92347 10.8333 5.41667C10.8333 5.90987 10.8982 6.5328 10.9767 7.10631C11.1137 8.10623 11.8938 8.88632 12.8937 9.02326C13.4672 9.10181 14.0901 9.16667 14.5833 9.16667C15.0765 9.16667 15.6994 9.10181 16.273 9.02326C17.2729 8.88632 18.053 8.10623 18.1899 7.10631C18.2684 6.5328 18.3333 5.90987 18.3333 5.41667C18.3333 4.92347 18.2684 4.30054 18.1899 3.72704C18.053 2.72712 17.2729 1.94702 16.273 1.81008C15.6994 1.73154 15.0765 1.66667 14.5833 1.66667C14.0901 1.66667 13.4672 1.73154 12.8937 1.81008Z" fill="#5F6165"/>
<path fill-rule="evenodd" clip-rule="evenodd" d="M5.41669 3.33334C5.03987 3.33334 4.50746 3.38543 3.9532 3.46133C3.69426 3.4968 3.49681 3.69424 3.46135 3.95318C3.38544 4.50744 3.33335 5.03985 3.33335 5.41667C3.33335 5.79349 3.38544 6.3259 3.46135 6.88016C3.49681 7.1391 3.69426 7.33655 3.9532 7.37201C4.50746 7.44792 5.03987 7.50001 5.41669 7.50001C5.7935 7.50001 6.32592 7.44792 6.88018 7.37201C7.13912 7.33655 7.33656 7.1391 7.37203 6.88016C7.44793 6.3259 7.50002 5.79349 7.50002 5.41667C7.50002 5.03985 7.44793 4.50744 7.37203 3.95318C7.33656 3.69424 7.13912 3.4968 6.88018 3.46133C6.32592 3.38543 5.7935 3.33334 5.41669 3.33334ZM3.72705 1.81008C2.72713 1.94702 1.94704 2.72712 1.8101 3.72704C1.73155 4.30054 1.66669 4.92347 1.66669 5.41667C1.66669 5.90987 1.73155 6.5328 1.8101 7.10631C1.94704 8.10623 2.72713 8.88632 3.72705 9.02326C4.30056 9.10181 4.92349 9.16667 5.41669 9.16667C5.90989 9.16667 6.53282 9.10181 7.10632 9.02326C8.10624 8.88632 8.88633 8.10623 9.02328 7.10631C9.10182 6.5328 9.16669 5.90987 9.16669 5.41667C9.16669 4.92347 9.10182 4.30054 9.02328 3.72704C8.88633 2.72712 8.10624 1.94702 7.10632 1.81008C6.53282 1.73154 5.90989 1.66667 5.41669 1.66667C4.92349 1.66667 4.30056 1.73154 3.72705 1.81008Z" fill="#5F6165"/>
</svg>
