<svg width="20" height="20" viewBox="0 0 20 20" fill="none" xmlns="http://www.w3.org/2000/svg">
<path fill-rule="evenodd" clip-rule="evenodd" d="M9.19101 12.5006C9.65092 12.4832 10.0378 12.842 10.0552 13.3019C10.0943 14.3387 10.1493 15.0954 10.2034 15.638C10.2566 16.1723 10.5792 16.4938 11.0288 16.5488C11.559 16.6136 12.307 16.6666 13.3333 16.6666C14.3597 16.6666 15.1077 16.6136 15.6379 16.5488C16.0873 16.4938 16.4101 16.1722 16.4633 15.6378C16.5636 14.6306 16.6667 12.8907 16.6667 9.99998C16.6667 7.1093 16.5636 5.36932 16.4633 4.36221C16.4101 3.82775 16.0873 3.50612 15.6379 3.45118C15.1077 3.38636 14.3597 3.33331 13.3333 3.33331C12.307 3.33331 11.559 3.38636 11.0288 3.45117C10.5792 3.50614 10.2566 3.82763 10.2034 4.36195C10.1493 4.90452 10.0943 5.66126 10.0552 6.69808C10.0378 7.15799 9.65092 7.51675 9.19101 7.49939C8.7311 7.48202 8.37234 7.09512 8.3897 6.63521C8.42988 5.57101 8.48684 4.7795 8.54489 4.19674C8.66694 2.9716 9.52111 1.9564 10.8266 1.79682C11.4342 1.72253 12.2507 1.66664 13.3333 1.66664C14.416 1.66664 15.2325 1.72254 15.8401 1.79683C17.1457 1.95643 17.9997 2.9721 18.1218 4.197C18.2292 5.27555 18.3333 7.07371 18.3333 9.99998C18.3333 12.9263 18.2292 14.7244 18.1218 15.803C17.9997 17.0279 17.1457 18.0435 15.8401 18.2031C15.2325 18.2774 14.416 18.3333 13.3333 18.3333C12.2507 18.3333 11.4343 18.2774 10.8266 18.2031C9.52111 18.0436 8.66694 17.0284 8.54489 15.8032C8.48684 15.2205 8.42988 14.4289 8.3897 13.3647C8.37234 12.9048 8.7311 12.5179 9.19101 12.5006Z" fill="#72767C"/>
<path fill-rule="evenodd" clip-rule="evenodd" d="M6.00594 12.3274C6.33138 12.6528 6.33138 13.1805 6.00594 13.5059C5.68051 13.8314 5.15287 13.8314 4.82743 13.5059L1.91076 10.5893C1.58533 10.2638 1.58533 9.73618 1.91076 9.41074L4.82743 6.49408C5.15287 6.16864 5.68051 6.16864 6.00594 6.49408C6.33138 6.81951 6.33138 7.34715 6.00594 7.67259L4.51186 9.16667H12.5C12.9603 9.16667 13.3334 9.53976 13.3334 10C13.3334 10.4602 12.9603 10.8333 12.5 10.8333L4.51186 10.8333L6.00594 12.3274Z" fill="#72767C"/>
</svg>
