<svg width="20" height="20" viewBox="0 0 20 20" fill="none" xmlns="http://www.w3.org/2000/svg">
<path fill-rule="evenodd" clip-rule="evenodd" d="M5.83335 13.2511V15.8292L10.0519 13.3365L10.4928 13.3293C12.246 13.3006 13.8239 13.124 15.0037 12.9445C15.7482 12.8312 16.2656 12.3116 16.378 11.6591C16.5339 10.7541 16.6667 9.60743 16.6667 8.33333C16.6667 7.05923 16.5339 5.9126 16.378 5.00755C16.2656 4.35507 15.7482 3.83543 15.0037 3.72214C13.7133 3.5258 11.9486 3.33333 10 3.33333C8.05141 3.33333 6.28675 3.5258 4.99637 3.72214C4.2518 3.83543 3.73444 4.35507 3.62205 5.00755C3.46615 5.9126 3.33335 7.05923 3.33335 8.33333C3.33335 9.60743 3.46615 10.7541 3.62205 11.6591C3.71964 12.2257 4.11547 12.6799 4.69259 12.8718L5.83335 13.2511ZM1.97957 4.72464C2.22139 3.32073 3.33729 2.28873 4.74566 2.07443C6.09511 1.86911 7.94634 1.66666 10 1.66666C12.0537 1.66666 13.9049 1.86911 15.2544 2.07443C16.6628 2.28873 17.7787 3.32073 18.0205 4.72464C18.189 5.70309 18.3334 6.94604 18.3334 8.33333C18.3334 9.72062 18.189 10.9636 18.0205 11.942C17.7787 13.3459 16.6628 14.3779 15.2544 14.5922C14.0198 14.7801 12.3653 14.9655 10.5201 14.9957L5.42396 18.0071C4.86845 18.3353 4.16669 17.9349 4.16669 17.2896V14.4533C3.03882 14.0782 2.18715 13.1472 1.97957 11.942C1.81103 10.9636 1.66669 9.72062 1.66669 8.33333C1.66669 6.94604 1.81103 5.70309 1.97957 4.72464Z" fill="#72767C"/>
<path fill-rule="evenodd" clip-rule="evenodd" d="M5.83333 5.83333C5.3731 5.83333 5 6.20642 5 6.66666C5 7.1269 5.3731 7.49999 5.83333 7.49999H14.1667C14.6269 7.49999 15 7.1269 15 6.66666C15 6.20642 14.6269 5.83333 14.1667 5.83333H5.83333ZM5.83333 9.16666C5.3731 9.16666 5 9.53976 5 9.99999C5 10.4602 5.3731 10.8333 5.83333 10.8333H9.16667C9.6269 10.8333 10 10.4602 10 9.99999C10 9.53976 9.6269 9.16666 9.16667 9.16666H5.83333Z" fill="#72767C"/>
</svg>
