<svg width="20" height="24" viewBox="0 0 20 24" fill="none" xmlns="http://www.w3.org/2000/svg">
<path d="M17.2 13.449V9.62358C17.1983 7.91915 16.5949 6.27033 15.4968 4.9691C14.3986 3.66788 12.8765 2.79823 11.2 2.51416V1.20295C11.2 0.883906 11.0736 0.577931 10.8486 0.352335C10.6235 0.126739 10.3183 0 10 0C9.68176 0 9.37654 0.126739 9.15149 0.352335C8.92645 0.577931 8.80002 0.883906 8.80002 1.20295V2.51416C7.12355 2.79823 5.60145 3.66788 4.50329 4.9691C3.40512 6.27033 2.80175 7.91915 2.80002 9.62358V13.449C2.09976 13.6971 1.49322 14.1564 1.06355 14.7637C0.633879 15.371 0.402112 16.0967 0.400024 16.8413V19.2472C0.400024 19.5662 0.526453 19.8722 0.751496 20.0978C0.97654 20.3234 1.28176 20.4501 1.60002 20.4501H5.36802C5.64436 21.4694 6.24763 22.3693 7.08474 23.0109C7.92185 23.6524 8.9463 24 10 24C11.0537 24 12.0782 23.6524 12.9153 23.0109C13.7524 22.3693 14.3557 21.4694 14.632 20.4501H18.4C18.7183 20.4501 19.0235 20.3234 19.2486 20.0978C19.4736 19.8722 19.6 19.5662 19.6 19.2472V16.8413C19.5979 16.0967 19.3662 15.371 18.9365 14.7637C18.5068 14.1564 17.9003 13.6971 17.2 13.449ZM5.20002 9.62358C5.20002 8.34741 5.70574 7.12351 6.60591 6.22113C7.50608 5.31874 8.72698 4.81179 10 4.81179C11.2731 4.81179 12.494 5.31874 13.3941 6.22113C14.2943 7.12351 14.8 8.34741 14.8 9.62358V13.2324H5.20002V9.62358ZM10 21.6531C9.58119 21.6505 9.17031 21.5381 8.80822 21.3271C8.44613 21.1161 8.14544 20.8137 7.93602 20.4501H12.064C11.8546 20.8137 11.5539 21.1161 11.1918 21.3271C10.8297 21.5381 10.4189 21.6505 10 21.6531ZM17.2 18.0442H2.80002V16.8413C2.80002 16.5222 2.92645 16.2162 3.1515 15.9906C3.37654 15.7651 3.68176 15.6383 4.00002 15.6383H16C16.3183 15.6383 16.6235 15.7651 16.8486 15.9906C17.0736 16.2162 17.2 16.5222 17.2 16.8413V18.0442Z" fill="#7C7C8D"/>
<circle cx="14.9" cy="6.5" r="3.75" fill="#FF5E6F" stroke="white" stroke-width="1.5"/>
</svg>
