<svg width="20" height="20" viewBox="0 0 20 20" fill="none" xmlns="http://www.w3.org/2000/svg">
<path d="M4.58332 14.5834H3.33332V5.41669H9.83332L9.16666 6.08335C8.99999 6.25002 8.91666 6.41669 8.91666 6.66669C8.91666 7.16669 9.24999 7.50002 9.74999 7.50002C9.99999 7.50002 10.1667 7.41669 10.3333 7.25002L12.4167 5.16669C12.75 4.83335 12.75 4.33335 12.4167 4.00002L10.3333 1.91669C9.99999 1.58335 9.49999 1.58335 9.16666 1.91669C8.83332 2.25002 8.83332 2.75002 9.16666 3.08335L9.83332 3.75002H2.49999C1.99999 3.75002 1.66666 4.08335 1.66666 4.58335V15.4167C1.66666 15.9167 1.99999 16.25 2.49999 16.25H4.58332C5.08332 16.25 5.41666 15.9167 5.41666 15.4167C5.41666 14.9167 5.08332 14.5834 4.58332 14.5834ZM17.5 3.75002H15.4167C14.9167 3.75002 14.5833 4.08335 14.5833 4.58335C14.5833 5.08335 14.9167 5.41669 15.4167 5.41669H16.6667V14.5834H9.66666L10.3333 13.9167C10.6667 13.5834 10.6667 13.0834 10.3333 12.75C9.99999 12.4167 9.49999 12.4167 9.16666 12.75L7.08332 14.8334C6.74999 15.1667 6.74999 15.6667 7.08332 16L9.16666 18.0834C9.33332 18.25 9.49999 18.3334 9.74999 18.3334C9.99999 18.3334 10.1667 18.25 10.3333 18.0834C10.6667 17.75 10.6667 17.25 10.3333 16.9167L9.66666 16.25H17.5C18 16.25 18.3333 15.9167 18.3333 15.4167V4.58335C18.3333 4.08335 18 3.75002 17.5 3.75002Z" fill="#72767C"/>
</svg>
