<svg width="21" height="20" viewBox="0 0 21 20" fill="none" xmlns="http://www.w3.org/2000/svg">
<path d="M20.1192 18.3125L16.4114 14.6325C17.8507 12.837 18.5476 10.5578 18.3591 8.26385C18.1705 5.96985 17.1107 3.83533 15.3975 2.29919C13.6844 0.763054 11.4482 -0.0579415 9.14865 0.00501891C6.84913 0.0679793 4.66111 1.01011 3.0345 2.63769C1.40789 4.26527 0.466316 6.45459 0.403393 8.75547C0.34047 11.0564 1.16098 13.2939 2.6962 15.0081C4.23143 16.7222 6.36468 17.7827 8.65732 17.9714C10.95 18.1601 13.2277 17.4626 15.0222 16.0225L18.7 19.7025C18.793 19.7963 18.9035 19.8707 19.0253 19.9214C19.1471 19.9722 19.2777 19.9983 19.4096 19.9983C19.5416 19.9983 19.6722 19.9722 19.794 19.9214C19.9158 19.8707 20.0263 19.7963 20.1192 19.7025C20.2993 19.5161 20.4 19.2669 20.4 19.0075C20.4 18.7482 20.2993 18.499 20.1192 18.3125ZM9.41557 16.0225C8.03192 16.0225 6.67934 15.612 5.52888 14.8428C4.37842 14.0737 3.48175 12.9804 2.95225 11.7013C2.42275 10.4223 2.28421 9.01478 2.55415 7.65692C2.82408 6.29905 3.49037 5.05177 4.46876 4.0728C5.44714 3.09383 6.69368 2.42715 8.05075 2.15705C9.40781 1.88695 10.8144 2.02558 12.0928 2.55539C13.3711 3.08521 14.4637 3.98241 15.2324 5.13356C16.0011 6.2847 16.4114 7.63808 16.4114 9.02255C16.4114 10.8791 15.6743 12.6595 14.3624 13.9723C13.0504 15.2851 11.271 16.0225 9.41557 16.0225Z" fill="#7C7C8D"/>
</svg>
