<svg width="20" height="20" viewBox="0 0 20 20" fill="none" xmlns="http://www.w3.org/2000/svg">
<path fill-rule="evenodd" clip-rule="evenodd" d="M14.7851 6.66667H5.21481C4.25344 6.66667 3.49142 7.4778 3.55139 8.4373L3.96806 15.104C4.02296 15.9824 4.75137 16.6667 5.63148 16.6667H14.3685C15.2486 16.6667 15.977 15.9824 16.0319 15.104L16.4486 8.4373C16.5085 7.4778 15.7465 6.66667 14.7851 6.66667ZM5.21481 5C3.29208 5 1.76803 6.62227 1.88797 8.54126L2.30464 15.2079C2.41444 16.9647 3.87127 18.3333 5.63148 18.3333H14.3685C16.1287 18.3333 17.5855 16.9647 17.6953 15.2079L18.112 8.54126C18.2319 6.62227 16.7079 5 14.7851 5H5.21481Z" fill="#72767C"/>
<path fill-rule="evenodd" clip-rule="evenodd" d="M5.83331 5.83333C5.83331 3.53215 7.69879 1.66667 9.99998 1.66667C12.3012 1.66667 14.1666 3.53215 14.1666 5.83333V7.5C14.1666 7.96024 13.7936 8.33333 13.3333 8.33333C12.8731 8.33333 12.5 7.96024 12.5 7.5V5.83333C12.5 4.45262 11.3807 3.33333 9.99998 3.33333C8.61927 3.33333 7.49998 4.45262 7.49998 5.83333V7.5C7.49998 7.96024 7.12688 8.33333 6.66665 8.33333C6.20641 8.33333 5.83331 7.96024 5.83331 7.5V5.83333Z" fill="#72767C"/>
</svg>
