<svg width="20" height="20" viewBox="0 0 20 20" fill="none" xmlns="http://www.w3.org/2000/svg">
<path d="M18.0893 3.08926C18.4147 2.76382 18.4147 2.23618 18.0893 1.91075C17.7638 1.58531 17.2362 1.58531 16.9108 1.91075L6.4941 12.3274C6.16866 12.6528 6.16866 13.1805 6.4941 13.5059C6.81954 13.8314 7.34717 13.8314 7.67261 13.5059L18.0893 3.08926Z" fill="#72767C"/>
<path d="M4.33928 16.8393C4.66471 16.5138 4.66471 15.9862 4.33928 15.6607C4.01384 15.3353 3.4862 15.3353 3.16076 15.6607L1.91076 16.9107C1.58533 17.2362 1.58533 17.7638 1.91076 18.0893C2.2362 18.4147 2.76384 18.4147 3.08928 18.0893L4.33928 16.8393Z" fill="#72767C"/>
<path fill-rule="evenodd" clip-rule="evenodd" d="M5.20549 16.1818C5.43652 16.4128 5.79454 16.5014 6.04841 16.2957C6.42556 15.9901 6.66666 15.5232 6.66666 15C6.66666 14.0795 5.92046 13.3333 4.99999 13.3333C4.47678 13.3333 4.00987 13.5744 3.70431 13.9516C3.49863 14.2055 3.58715 14.5635 3.81818 14.7945L5.20549 16.1818ZM6.01925 18.1746C5.3879 18.3772 4.7366 18.0699 4.26776 17.6011L2.39889 15.7322C1.93005 15.2634 1.62283 14.6121 1.82537 13.9807C2.25603 12.6383 3.51454 11.6667 4.99999 11.6667C6.84094 11.6667 8.33332 13.1591 8.33332 15C8.33332 16.4855 7.36166 17.744 6.01925 18.1746Z" fill="#72767C"/>
<path d="M1.91072 3.08926C1.58529 2.76382 1.58529 2.23618 1.91072 1.91075C2.23616 1.58531 2.7638 1.58531 3.08924 1.91075L13.5059 12.3274C13.8313 12.6528 13.8313 13.1805 13.5059 13.5059C13.1805 13.8314 12.6528 13.8314 12.3274 13.5059L1.91072 3.08926Z" fill="#72767C"/>
<path d="M15.6607 16.8393C15.3353 16.5138 15.3353 15.9862 15.6607 15.6607C15.9862 15.3353 16.5138 15.3353 16.8392 15.6607L18.0892 16.9107C18.4147 17.2362 18.4147 17.7638 18.0892 18.0893C17.7638 18.4147 17.2362 18.4147 16.9107 18.0893L15.6607 16.8393Z" fill="#72767C"/>
<path fill-rule="evenodd" clip-rule="evenodd" d="M14.7945 16.1818C14.5635 16.4128 14.2055 16.5014 13.9516 16.2957C13.5744 15.9901 13.3333 15.5232 13.3333 15C13.3333 14.0795 14.0795 13.3333 15 13.3333C15.5232 13.3333 15.9901 13.5744 16.2957 13.9516C16.5014 14.2055 16.4129 14.5635 16.1818 14.7945L14.7945 16.1818ZM13.9808 18.1746C14.6121 18.3772 15.2634 18.0699 15.7322 17.6011L17.6011 15.7322C18.07 15.2634 18.3772 14.6121 18.1746 13.9807C17.744 12.6383 16.4855 11.6667 15 11.6667C13.1591 11.6667 11.6667 13.1591 11.6667 15C11.6667 16.4855 12.6383 17.744 13.9808 18.1746Z" fill="#72767C"/>
</svg>
