<svg width="20" height="20" viewBox="0 0 20 20" fill="none" xmlns="http://www.w3.org/2000/svg">
<path fill-rule="evenodd" clip-rule="evenodd" d="M16.6246 5.9087C16.6332 5.25778 16.3892 4.60413 15.8926 4.10746C15.3959 3.6108 14.7423 3.36679 14.0913 3.37546C14.0911 3.37546 14.0916 3.37545 14.0913 3.37546C13.7316 3.38035 13.3719 3.46243 13.0408 3.6217C12.9222 3.67877 12.8071 3.74576 12.6968 3.82267C12.6544 3.85228 12.5997 3.85904 12.5519 3.83921C12.5041 3.81939 12.4702 3.77596 12.4611 3.72503C12.4375 3.59268 12.4035 3.46394 12.36 3.33968C12.2385 2.99295 12.0427 2.68112 11.7918 2.42327C11.7916 2.4231 11.792 2.42345 11.7918 2.42327C11.3377 1.95688 10.7024 1.66669 10 1.66669C9.29763 1.66669 8.66289 1.95635 8.20875 2.42274C8.20858 2.42292 8.20892 2.42257 8.20875 2.42274C7.95782 2.68059 7.76155 2.99295 7.64005 3.33968C7.59651 3.46394 7.5625 3.59268 7.53891 3.72503C7.52983 3.77596 7.49593 3.81939 7.44814 3.83921C7.40032 3.85904 7.34566 3.85228 7.3032 3.82266C7.19294 3.74576 7.07786 3.67877 6.95921 3.6217C6.62811 3.46243 6.2692 3.38036 5.90943 3.37546C5.90919 3.37546 5.90968 3.37547 5.90943 3.37546C5.25852 3.3668 4.60413 3.6108 4.10746 4.10746C3.6108 4.60413 3.36679 5.25778 3.37546 5.9087C3.37546 5.90894 3.37545 5.90845 3.37546 5.9087C3.38035 6.26846 3.46243 6.62811 3.62169 6.9592C3.67877 7.07785 3.74576 7.19293 3.82266 7.3032C3.85228 7.34566 3.85904 7.40032 3.83921 7.44814C3.81939 7.49593 3.77596 7.52983 3.72503 7.53891C3.59268 7.5625 3.46393 7.59651 3.33966 7.64006C2.99294 7.76155 2.68112 7.95731 2.42327 8.20824C2.42309 8.20841 2.42345 8.20806 2.42327 8.20824C1.95688 8.66238 1.66669 9.29763 1.66669 10C1.66669 10.7024 1.95635 11.3372 2.42274 11.7913C2.42292 11.7915 2.42257 11.7911 2.42274 11.7913C2.68059 12.0422 2.99294 12.2385 3.33966 12.36C3.46393 12.4035 3.59268 12.4375 3.72503 12.4611C3.77596 12.4702 3.81939 12.5041 3.83921 12.5519C3.85904 12.5997 3.85228 12.6544 3.82266 12.6968C3.74576 12.8071 3.67877 12.9222 3.62169 13.0408C3.46243 13.3719 3.38036 13.7308 3.37547 14.0906C3.37546 14.0909 3.37547 14.0904 3.37547 14.0906C3.3668 14.7415 3.6108 15.3959 4.10746 15.8926C4.60413 16.3892 5.25778 16.6332 5.9087 16.6246C5.90894 16.6246 5.90845 16.6246 5.9087 16.6246C6.26846 16.6197 6.6281 16.5376 6.95918 16.3784C7.07784 16.3213 7.19293 16.2543 7.3032 16.1774C7.34566 16.1478 7.40032 16.141 7.44814 16.1608C7.49593 16.1807 7.52983 16.2241 7.53891 16.275C7.56251 16.4074 7.59651 16.5361 7.64006 16.6604C7.76156 17.0071 7.95731 17.3189 8.20824 17.5768C8.20841 17.5769 8.20806 17.5766 8.20824 17.5768C8.66238 18.0432 9.29763 18.3334 10 18.3334C10.7024 18.3334 11.3372 18.0437 11.7913 17.5773C11.7915 17.5771 11.7911 17.5775 11.7913 17.5773C12.0422 17.3194 12.2385 17.0071 12.36 16.6604C12.4035 16.5361 12.4375 16.4074 12.4611 16.275C12.4702 16.2241 12.5041 16.1807 12.5519 16.1608C12.5997 16.141 12.6544 16.1478 12.6968 16.1774C12.8071 16.2543 12.9222 16.3213 13.0409 16.3784C13.3719 16.5376 13.7309 16.6197 14.0906 16.6246C14.0909 16.6246 14.0904 16.6246 14.0906 16.6246C14.7415 16.6332 15.3959 16.3892 15.8926 15.8926C16.3892 15.3959 16.6332 14.7423 16.6246 14.0913C16.6246 14.0911 16.6246 14.0916 16.6246 14.0913C16.6197 13.7316 16.5376 13.3719 16.3784 13.0409C16.3213 12.9222 16.2543 12.8071 16.1774 12.6968C16.1478 12.6544 16.141 12.5997 16.1608 12.5519C16.1807 12.5041 16.2241 12.4702 16.275 12.4611C16.4074 12.4375 16.5361 12.4035 16.6604 12.36C17.0071 12.2385 17.3189 12.0427 17.5768 11.7918C17.5769 11.7916 17.5766 11.792 17.5768 11.7918C18.0432 11.3377 18.3334 10.7024 18.3334 10C18.3334 9.29763 18.0437 8.66289 17.5773 8.20875C17.5771 8.20858 17.5775 8.20892 17.5773 8.20875C17.3195 7.95782 17.0071 7.76156 16.6604 7.64006C16.5361 7.59651 16.4074 7.5625 16.275 7.53891C16.2241 7.52983 16.1807 7.49593 16.1608 7.44814C16.141 7.40032 16.1478 7.34566 16.1774 7.3032C16.2543 7.19293 16.3213 7.07784 16.3784 6.95919C16.5376 6.6281 16.6197 6.26846 16.6246 5.9087C16.6246 5.90894 16.6246 5.90845 16.6246 5.9087ZM14.7141 5.28597C14.4254 4.99729 13.9743 4.96372 13.6503 5.1897C13.1587 5.53256 12.5058 5.62437 11.9135 5.37876C11.3227 5.13378 10.9256 4.60823 10.8203 4.01751C10.751 3.6286 10.4083 3.33335 10 3.33335C9.59176 3.33335 9.24904 3.6286 9.17971 4.01751C9.07442 4.60822 8.67733 5.13378 8.08655 5.37875C7.49425 5.62437 6.84139 5.53255 6.34979 5.1897C6.02577 4.96372 5.57466 4.99729 5.28597 5.28597C4.99729 5.57466 4.96372 6.02577 5.1897 6.34979C5.53256 6.84139 5.62437 7.49425 5.37876 8.08655C5.13378 8.67733 4.60822 9.07442 4.01751 9.17972C3.6286 9.24904 3.33335 9.59176 3.33335 10C3.33335 10.4083 3.6286 10.751 4.01751 10.8203C4.60822 10.9256 5.13378 11.3227 5.37875 11.9135C5.62437 12.5058 5.53256 13.1587 5.1897 13.6503C4.96372 13.9743 4.99729 14.4254 5.28598 14.7141C5.57466 15.0027 6.02577 15.0363 6.34979 14.8103C6.84138 14.4675 7.49424 14.3757 8.08655 14.6213C8.67732 14.8663 9.07442 15.3918 9.17972 15.9825C9.24904 16.3714 9.59176 16.6667 10 16.6667C10.4083 16.6667 10.751 16.3714 10.8203 15.9825C10.9256 15.3918 11.3227 14.8663 11.9135 14.6213C12.5058 14.3757 13.1587 14.4675 13.6503 14.8103C13.9743 15.0363 14.4254 15.0027 14.7141 14.7141C15.0028 14.4254 15.0363 13.9743 14.8103 13.6503C14.4675 13.1587 14.3757 12.5058 14.6213 11.9135C14.8663 11.3227 15.3918 10.9256 15.9825 10.8203C16.3714 10.751 16.6667 10.4083 16.6667 10C16.6667 9.59176 16.3714 9.24904 15.9825 9.17972C15.3918 9.07442 14.8663 8.67733 14.6213 8.08656C14.3757 7.49425 14.4675 6.84138 14.8103 6.34979C15.0363 6.02577 15.0028 5.57466 14.7141 5.28597Z" fill="#72767C"/>
<path fill-rule="evenodd" clip-rule="evenodd" d="M10 11.6667C10.9205 11.6667 11.6667 10.9205 11.6667 10C11.6667 9.07955 10.9205 8.33335 10 8.33335C9.07955 8.33335 8.33335 9.07955 8.33335 10C8.33335 10.9205 9.07955 11.6667 10 11.6667ZM10 13.3334C11.841 13.3334 13.3334 11.841 13.3334 10C13.3334 8.15907 11.841 6.66669 10 6.66669C8.15907 6.66669 6.66669 8.15907 6.66669 10C6.66669 11.841 8.15907 13.3334 10 13.3334Z" fill="#72767C"/>
</svg>
