<svg width="16" height="16" viewBox="0 0 16 16" fill="none" xmlns="http://www.w3.org/2000/svg">
<path d="M9.33721 7.33718H8.67054V6.67051C8.67054 6.4937 8.6003 6.32413 8.47528 6.19911C8.35026 6.07408 8.18069 6.00385 8.00388 6.00385C7.82706 6.00385 7.6575 6.07408 7.53247 6.19911C7.40745 6.32413 7.33721 6.4937 7.33721 6.67051V7.33718H6.67054C6.49373 7.33718 6.32416 7.40742 6.19914 7.53244C6.07411 7.65747 6.00388 7.82703 6.00388 8.00385C6.00388 8.18066 6.07411 8.35023 6.19914 8.47525C6.32416 8.60027 6.49373 8.67051 6.67054 8.67051H7.33721V9.33718C7.33721 9.51399 7.40745 9.68356 7.53247 9.80858C7.6575 9.93361 7.82706 10.0038 8.00388 10.0038C8.18069 10.0038 8.35026 9.93361 8.47528 9.80858C8.6003 9.68356 8.67054 9.51399 8.67054 9.33718V8.67051H9.33721C9.51402 8.67051 9.68359 8.60027 9.80861 8.47525C9.93364 8.35023 10.0039 8.18066 10.0039 8.00385C10.0039 7.82703 9.93364 7.65747 9.80861 7.53244C9.68359 7.40742 9.51402 7.33718 9.33721 7.33718ZM14.4772 7.53051L12.9105 6.00385V3.76385C12.9105 3.58703 12.8403 3.41747 12.7153 3.29244C12.5903 3.16742 12.4207 3.09718 12.2439 3.09718H10.0372L8.47721 1.53051C8.41523 1.46803 8.3415 1.41843 8.26026 1.38458C8.17902 1.35074 8.09188 1.33331 8.00388 1.33331C7.91587 1.33331 7.82873 1.35074 7.74749 1.38458C7.66625 1.41843 7.59252 1.46803 7.53054 1.53051L6.00388 3.09718H3.76388C3.58706 3.09718 3.4175 3.16742 3.29247 3.29244C3.16745 3.41747 3.09721 3.58703 3.09721 3.76385V6.00385L1.53054 7.53051C1.46806 7.59249 1.41846 7.66622 1.38461 7.74746C1.35077 7.8287 1.33334 7.91584 1.33334 8.00385C1.33334 8.09185 1.35077 8.17899 1.38461 8.26023C1.41846 8.34147 1.46806 8.4152 1.53054 8.47718L3.09721 10.0372V12.2438C3.09721 12.4207 3.16745 12.5902 3.29247 12.7152C3.4175 12.8403 3.58706 12.9105 3.76388 12.9105H6.00388L7.56388 14.4772C7.62585 14.5397 7.69959 14.5893 7.78082 14.6231C7.86206 14.657 7.9492 14.6744 8.03721 14.6744C8.12522 14.6744 8.21235 14.657 8.29359 14.6231C8.37483 14.5893 8.44857 14.5397 8.51054 14.4772L10.0705 12.9105H12.2772C12.454 12.9105 12.6236 12.8403 12.7486 12.7152C12.8736 12.5902 12.9439 12.4207 12.9439 12.2438V10.0372L14.5105 8.47718C14.5709 8.41303 14.6179 8.33756 14.649 8.25512C14.68 8.17268 14.6943 8.08492 14.6912 7.9969C14.6881 7.90887 14.6676 7.82234 14.6309 7.74228C14.5942 7.66223 14.5419 7.59026 14.4772 7.53051ZM11.7772 9.29051C11.7142 9.35226 11.6641 9.42588 11.6298 9.50713C11.5954 9.58839 11.5776 9.67564 11.5772 9.76385V11.5772H9.76388C9.67567 11.5775 9.58842 11.5954 9.50717 11.6297C9.42592 11.6641 9.35229 11.7142 9.29054 11.7772L8.00388 13.0638L6.71721 11.7772C6.65547 11.7142 6.58184 11.6641 6.50059 11.6297C6.41934 11.5954 6.33208 11.5775 6.24388 11.5772H4.43054V9.76385C4.43018 9.67564 4.41231 9.58839 4.37798 9.50713C4.34365 9.42588 4.29353 9.35226 4.23054 9.29051L2.94388 8.00385L4.23054 6.71718C4.29353 6.65544 4.34365 6.58181 4.37798 6.50056C4.41231 6.41931 4.43018 6.33205 4.43054 6.24385V4.43051H6.24388C6.33208 4.43015 6.41934 4.41228 6.50059 4.37795C6.58184 4.34362 6.65547 4.2935 6.71721 4.23051L8.00388 2.94385L9.29054 4.23051C9.35229 4.2935 9.42592 4.34362 9.50717 4.37795C9.58842 4.41228 9.67567 4.43015 9.76388 4.43051H11.5772V6.24385C11.5776 6.33205 11.5954 6.41931 11.6298 6.50056C11.6641 6.58181 11.7142 6.65544 11.7772 6.71718L13.0639 8.00385L11.7772 9.29051Z" fill="#72767C"/>
</svg>
