<svg width="16" height="16" viewBox="0 0 16 16" fill="none" xmlns="http://www.w3.org/2000/svg">
<path d="M13.2253 6.38738C13.1701 6.27771 13.0855 6.18549 12.981 6.12093C12.8766 6.05637 12.7563 6.022 12.6335 6.02163H9.30846V2.03163C9.31559 1.88578 9.27453 1.74164 9.1916 1.62145C9.10867 1.50127 8.98849 1.41172 8.84961 1.36662C8.71609 1.3227 8.57209 1.3222 8.43828 1.36521C8.30446 1.40823 8.18772 1.49253 8.1048 1.60602L2.7848 8.92104C2.71814 9.01737 2.67812 9.12961 2.66877 9.24638C2.65943 9.36316 2.6811 9.48033 2.7316 9.58604C2.77809 9.7069 2.85887 9.81156 2.96401 9.88716C3.06915 9.96277 3.19407 10.006 3.32345 10.0116H6.64845V14.0016C6.64856 14.1419 6.69299 14.2785 6.7754 14.392C6.85781 14.5054 6.97398 14.5899 7.1073 14.6334C7.17412 14.6541 7.24352 14.6653 7.31345 14.6666C7.41838 14.6669 7.52188 14.6424 7.6155 14.595C7.70912 14.5476 7.7902 14.4787 7.8521 14.394L13.1721 7.07898C13.2438 6.97976 13.2866 6.86269 13.296 6.74067C13.3054 6.61864 13.2809 6.49639 13.2253 6.38738V6.38738ZM7.97845 11.9534V9.34664C7.97845 9.17027 7.90839 9.00112 7.78368 8.87641C7.65897 8.7517 7.48982 8.68164 7.31345 8.68164H4.65345L7.97845 4.07983V6.68663C7.97845 6.863 8.04852 7.03215 8.17323 7.15686C8.29794 7.28157 8.46709 7.35163 8.64346 7.35163H11.3035L7.97845 11.9534Z" fill="#72767C"/>
</svg>
