<svg width="20" height="21" viewBox="0 0 20 21" fill="none" xmlns="http://www.w3.org/2000/svg">
<path d="M13.0383 11.0963C13.8553 10.4535 14.4516 9.57202 14.7444 8.57454C15.0371 7.57705 15.0116 6.51314 14.6715 5.53081C14.3314 4.54848 13.6935 3.69658 12.8467 3.09363C11.9999 2.49068 10.9862 2.16667 9.94665 2.16667C8.90711 2.16667 7.89341 2.49068 7.04659 3.09363C6.19977 3.69658 5.56194 4.54848 5.22183 5.53081C4.88172 6.51314 4.85625 7.57705 5.14895 8.57454C5.44166 9.57202 6.03799 10.4535 6.85499 11.0963C5.45505 11.6571 4.23356 12.5874 3.32073 13.7878C2.4079 14.9883 1.83795 16.414 1.67165 17.9129C1.65961 18.0224 1.66925 18.1331 1.70001 18.2388C1.73076 18.3445 1.78204 18.4431 1.85091 18.529C1.99 18.7025 2.19231 18.8136 2.41332 18.8379C2.63433 18.8622 2.85595 18.7977 3.02942 18.6587C3.20289 18.5196 3.31401 18.3173 3.33832 18.0963C3.52131 16.4672 4.29806 14.9628 5.52017 13.8702C6.74228 12.7777 8.32407 12.1738 9.96332 12.1738C11.6026 12.1738 13.1844 12.7777 14.4065 13.8702C15.6286 14.9628 16.4053 16.4672 16.5883 18.0963C16.611 18.301 16.7087 18.4901 16.8626 18.6271C17.0165 18.7641 17.2156 18.8392 17.4217 18.8379H17.5133C17.7318 18.8128 17.9314 18.7023 18.0688 18.5306C18.2062 18.3589 18.2701 18.1399 18.2467 17.9213C18.0796 16.4181 17.5065 14.9887 16.589 13.7864C15.6715 12.5841 14.4441 11.6542 13.0383 11.0963ZM9.94665 10.5046C9.28738 10.5046 8.64292 10.3091 8.09475 9.94282C7.54659 9.57655 7.11935 9.05595 6.86705 8.44686C6.61476 7.83778 6.54875 7.16755 6.67737 6.52095C6.80599 5.87435 7.12346 5.2804 7.58963 4.81423C8.05581 4.34805 8.64975 4.03058 9.29635 3.90197C9.94296 3.77335 10.6132 3.83936 11.2223 4.09165C11.8314 4.34395 12.3519 4.77119 12.7182 5.31935C13.0845 5.86751 13.28 6.51198 13.28 7.17125C13.28 8.05531 12.9288 8.90315 12.3037 9.52828C11.6786 10.1534 10.8307 10.5046 9.94665 10.5046Z" fill="#A162F7"/>
</svg>
