<svg width="20" height="21" viewBox="0 0 20 21" fill="none" xmlns="http://www.w3.org/2000/svg">
<path d="M4.58329 15.0833H3.33329V5.91667H9.83329L9.16663 6.58334C8.99996 6.75001 8.91663 6.91667 8.91663 7.16667C8.91663 7.66667 9.24996 8.00001 9.74996 8.00001C9.99996 8.00001 10.1666 7.91667 10.3333 7.75001L12.4166 5.66667C12.75 5.33334 12.75 4.83334 12.4166 4.50001L10.3333 2.41667C9.99996 2.08334 9.49996 2.08334 9.16663 2.41667C8.83329 2.75001 8.83329 3.25001 9.16663 3.58334L9.83329 4.25001H2.49996C1.99996 4.25001 1.66663 4.58334 1.66663 5.08334V15.9167C1.66663 16.4167 1.99996 16.75 2.49996 16.75H4.58329C5.08329 16.75 5.41663 16.4167 5.41663 15.9167C5.41663 15.4167 5.08329 15.0833 4.58329 15.0833ZM17.5 4.25001H15.4166C14.9166 4.25001 14.5833 4.58334 14.5833 5.08334C14.5833 5.58334 14.9166 5.91667 15.4166 5.91667H16.6666V15.0833H9.66663L10.3333 14.4167C10.6666 14.0833 10.6666 13.5833 10.3333 13.25C9.99996 12.9167 9.49996 12.9167 9.16663 13.25L7.08329 15.3333C6.74996 15.6667 6.74996 16.1667 7.08329 16.5L9.16663 18.5833C9.33329 18.75 9.49996 18.8333 9.74996 18.8333C9.99996 18.8333 10.1666 18.75 10.3333 18.5833C10.6666 18.25 10.6666 17.75 10.3333 17.4167L9.66663 16.75H17.5C18 16.75 18.3333 16.4167 18.3333 15.9167V5.08334C18.3333 4.58334 18 4.25001 17.5 4.25001Z" fill="#A162F7"/>
</svg>
